<svg xmlns="http://www.w3.org/2000/svg" viewBox="0 0 48 48" fill="none">
  <!-- Shield outer border - silver/white gradient effect -->
  <path d="M24 2L4 12v14c0 12 8.5 22 20 24 11.5-2 20-12 20-24V12L24 2z" fill="#c0c8d0"/>
  <!-- Shield inner fill - dark left, teal right -->
  <path d="M24 5L7 13.5v12.5c0 10.5 7.2 19 17 21V5z" fill="#0a1628"/>
  <path d="M24 5v42c9.8-2 17-10.5 17-21V13.5L24 5z" fill="#14b8a6"/>
  <!-- Inner shield icon at top -->
  <path d="M24 11l-6 3v4.5c0 3.6 2.5 6.8 6 7.5 3.5-.7 6-3.9 6-7.5V14l-6-3z" fill="none" stroke="#ffffff" stroke-width="1.3"/>
  <path d="M24 13l-4 2v3c0 2.5 1.7 4.7 4 5.2V13z" fill="rgba(255,255,255,0.15)"/>
  <path d="M24 13v10.2c2.3-.5 4-2.7 4-5.2v-3l-4-2z" fill="rgba(255,255,255,0.25)"/>
  <!-- Check mark inside inner shield -->
  <path d="M21 18.5l2 2 4-4" stroke="#ffffff" stroke-width="1.5" stroke-linecap="round" stroke-linejoin="round" fill="none"/>
  <!-- Lock icon at bottom -->
  <rect x="20.5" y="32" width="7" height="5.5" rx="1" fill="none" stroke="#ffffff" stroke-width="1.2"/>
  <path d="M22 32v-2a2 2 0 0 1 4 0v2" fill="none" stroke="#ffffff" stroke-width="1.2"/>
  <circle cx="24" cy="35" r="0.8" fill="#ffffff"/>
  <!-- Horizontal accent lines -->
  <line x1="1" y1="22" x2="7" y2="22" stroke="#14b8a6" stroke-width="1.5" opacity="0.6"/>
  <line x1="1" y1="24.5" x2="5" y2="24.5" stroke="#14b8a6" stroke-width="1" opacity="0.4"/>
  <line x1="41" y1="22" x2="47" y2="22" stroke="#14b8a6" stroke-width="1.5" opacity="0.6"/>
  <line x1="43" y1="24.5" x2="47" y2="24.5" stroke="#14b8a6" stroke-width="1" opacity="0.4"/>
</svg>
